<svg width="1460" height="1087" xmlns="http://www.w3.org/2000/svg" xmlns:xlink="http://www.w3.org/1999/xlink" overflow="hidden"><defs><clipPath id="clip0"><rect x="2488" y="908" width="1460" height="1087"/></clipPath></defs><g clip-path="url(#clip0)" transform="translate(-2488 -908)"><path d="M2758.5 1239.5C2758.5 1133.46 2844.46 1047.5 2950.5 1047.5 3056.54 1047.5 3142.5 1133.46 3142.5 1239.5 3142.5 1345.54 3056.54 1431.5 2950.5 1431.5 2844.46 1431.5 2758.5 1345.54 2758.5 1239.5Z" stroke="#2F528F" stroke-width="4.58333" stroke-miterlimit="8" fill="#00B050" fill-rule="evenodd"/><path d="M3269.5 1282C3269.5 1199.43 3336.43 1132.5 3419 1132.5 3501.57 1132.5 3568.5 1199.43 3568.5 1282 3568.5 1364.57 3501.57 1431.5 3419 1431.5 3336.43 1431.5 3269.5 1364.57 3269.5 1282Z" stroke="#2F528F" stroke-width="4.58333" stroke-miterlimit="8" fill="#FFC000" fill-rule="evenodd"/><path d="M3117.5 1351C3117.5 1306.54 3153.54 1270.5 3198 1270.5 3242.46 1270.5 3278.5 1306.54 3278.5 1351 3278.5 1395.46 3242.46 1431.5 3198 1431.5 3153.54 1431.5 3117.5 1395.46 3117.5 1351Z" stroke="#2F528F" stroke-width="4.58333" stroke-miterlimit="8" fill="#4472C4" fill-rule="evenodd"/><path d="M2488.5 1431.5 3945.21 1431.5" stroke="#C00000" stroke-width="4.58333" stroke-miterlimit="8" fill="none" fill-rule="evenodd"/><path d="M2758.5 908.5 2758.5 1431.74" stroke="#4472C4" stroke-width="4.58333" stroke-miterlimit="8" fill="none" fill-rule="evenodd"/><path d="M3568.5 908.5 3568.5 1431.74" stroke="#4472C4" stroke-width="4.58333" stroke-miterlimit="8" fill="none" fill-rule="evenodd"/><path d="M2758.5 1799.5C2758.5 1693.46 2844.46 1607.5 2950.5 1607.5 3056.54 1607.5 3142.5 1693.46 3142.5 1799.5 3142.5 1905.54 3056.54 1991.5 2950.5 1991.5 2844.46 1991.5 2758.5 1905.54 2758.5 1799.5Z" stroke="#2F528F" stroke-width="4.58333" stroke-miterlimit="8" fill="#00B050" fill-rule="evenodd"/><path d="M3142.5 1842C3142.5 1759.43 3209.43 1692.5 3292 1692.5 3374.57 1692.5 3441.5 1759.43 3441.5 1842 3441.5 1924.57 3374.57 1991.5 3292 1991.5 3209.43 1991.5 3142.5 1924.57 3142.5 1842Z" stroke="#2F528F" stroke-width="4.58333" stroke-miterlimit="8" fill="#FFC000" fill-rule="evenodd"/><path d="M3434.5 1911.5C3434.5 1866.76 3470.54 1830.5 3515 1830.5 3559.46 1830.5 3595.5 1866.76 3595.5 1911.5 3595.5 1956.23 3559.46 1992.5 3515 1992.5 3470.54 1992.5 3434.5 1956.23 3434.5 1911.5Z" stroke="#2F528F" stroke-width="4.58333" stroke-miterlimit="8" fill="#4472C4" fill-rule="evenodd"/><path d="M2488.5 1991.5 3945.21 1991.5" stroke="#C00000" stroke-width="4.58333" stroke-miterlimit="8" fill="none" fill-rule="evenodd"/><path d="M2758.5 1468.5 2758.5 1991.74" stroke="#4472C4" stroke-width="4.58333" stroke-miterlimit="8" fill="none" fill-rule="evenodd"/><path d="M3597.5 1468.5 3597.5 1991.74" stroke="#4472C4" stroke-width="4.58333" stroke-miterlimit="8" fill="none" fill-rule="evenodd"/><path d="M3568.5 1370.5 3568.5 1991.58" stroke="#BF9000" stroke-width="4.58333" stroke-miterlimit="8" stroke-dasharray="18.3333 13.75" fill="none" fill-rule="evenodd"/></g></svg>